<?xml version="1.0" encoding="UTF-8"?><svg id="Layer_1" xmlns="http://www.w3.org/2000/svg" viewBox="0 0 410.81 160.1"><defs><style>.cls-1,.cls-2,.cls-3,.cls-4{stroke-miterlimit:10;stroke-width:2px;}.cls-1,.cls-2,.cls-4{stroke:#020d14;}.cls-1,.cls-5{fill:#020d14;}.cls-2{stroke-linecap:square;}.cls-2,.cls-3,.cls-4{fill:none;}.cls-3{stroke:#0163a7;}.cls-6{fill:#0163a7;}.cls-6,.cls-7,.cls-8,.cls-5{stroke-width:0px;}.cls-7{fill:#fff;}.cls-8{fill:#fcfcfc;}</style></defs><polygon class="cls-5" points="397.63 74.08 346.29 74.08 352.73 48.93 402.02 48.93 402.02 56.93 358.94 56.93 356.59 66.08 397.63 66.08 397.63 74.08"/><polygon class="cls-2" points="397.63 74.08 346.29 74.08 352.73 48.93 402.02 48.93 402.02 56.93 358.94 56.93 356.59 66.08 397.63 66.08 397.63 74.08"/><polygon class="cls-5" points="405.42 41.99 354.08 41.99 360.52 16.84 409.81 16.84 409.81 24.84 366.73 24.84 364.39 33.99 405.42 33.99 405.42 41.99"/><polygon class="cls-2" points="405.42 41.99 354.08 41.99 360.52 16.84 409.81 16.84 409.81 24.84 366.73 24.84 364.39 33.99 405.42 33.99 405.42 41.99"/><polygon class="cls-5" points="353.55 65.5 299.9 65.5 310.16 25.41 361.33 25.41 361.33 33.41 316.37 33.41 310.2 57.5 353.55 57.5 353.55 65.5"/><polygon class="cls-4" points="353.55 65.5 299.9 65.5 310.16 25.41 361.33 25.41 361.33 33.41 316.37 33.41 310.2 57.5 353.55 57.5 353.55 65.5"/><rect class="cls-5" x="291.53" y="41.46" width="17.63" height="8"/><rect class="cls-4" x="291.53" y="41.46" width="17.63" height="8"/><polygon class="cls-5" points="381.16 140.9 329.82 140.9 336.26 115.75 385.55 115.75 385.55 123.75 342.47 123.75 340.12 132.9 381.16 132.9 381.16 140.9"/><polygon class="cls-2" points="381.16 140.9 329.82 140.9 336.26 115.75 385.55 115.75 385.55 123.75 342.47 123.75 340.12 132.9 381.16 132.9 381.16 140.9"/><polygon class="cls-5" points="388.95 108.81 337.61 108.81 344.05 83.66 393.34 83.66 393.34 91.66 350.26 91.66 347.92 100.81 388.95 100.81 388.95 108.81"/><polygon class="cls-2" points="388.95 108.81 337.61 108.81 344.05 83.66 393.34 83.66 393.34 91.66 350.26 91.66 347.92 100.81 388.95 100.81 388.95 108.81"/><polygon class="cls-5" points="337.08 132.33 283.43 132.33 293.69 92.24 344.86 92.24 344.86 100.24 299.9 100.24 293.73 124.33 337.08 124.33 337.08 132.33"/><polygon class="cls-4" points="337.08 132.33 283.43 132.33 293.69 92.24 344.86 92.24 344.86 100.24 299.9 100.24 293.73 124.33 337.08 124.33 337.08 132.33"/><rect class="cls-5" x="275.06" y="108.28" width="17.63" height="8"/><rect class="cls-4" x="275.06" y="108.28" width="17.63" height="8"/><path class="cls-5" d="m77.89,160.04c-7.72,0-14-6.28-14-14v-2.61c0-2.03.45-4.08,1.31-5.92l.45-.96c-1.02-1.97-1.56-4.15-1.56-6.44v-2.35c0-7.72,6.28-14,14-14h8.82c7.72,0,14,6.28,14,14v2.61c0,2.03-.45,4.08-1.31,5.92l-.26.56c1.16,2.08,1.78,4.43,1.78,6.83v2.35c0,7.72-6.28,14-14,14h-9.23Z"/><path class="cls-5" d="m88.84,160.04c-7.72,0-14-6.28-14-14v-18.28c0-7.72,6.28-14,14-14h7.74c7.72,0,14,6.28,14,14v2.35c0,2.03-.44,4.04-1.29,5.88,0,.72,0,1.74,0,1.82.85,1.83,1.29,3.84,1.29,5.88v2.35c0,7.72-6.28,14-14,14h-7.74Z"/><path class="cls-5" d="m104.86,160.04c-.66,0-1.33-.05-1.98-.14-.66.09-1.32.14-1.99.14h-2.58c-7.72,0-14-6.28-14-14v-18.28c0-7.72,6.28-14,14-14h6.32c9.37,0,16.71,7.35,16.71,16.74v5.35c0,1.69-.24,3.34-.71,4.92l.37,1.21c1.27,4.22.47,8.85-2.16,12.39-2.63,3.54-6.83,5.65-11.24,5.65h-2.73Z"/><path class="cls-5" d="m112.1,160.09c-9.37,0-16.71-7.35-16.71-16.74v-12.9c0-9.39,7.34-16.74,16.71-16.74h3.61c9.37,0,16.71,7.35,16.71,16.74v12.9c0,9.39-7.34,16.74-16.71,16.74h-3.61Z"/><path class="cls-5" d="m127.23,160.04c-.71,0-1.43-.06-2.14-.16-.71.11-1.43.16-2.14.16h-2.48c-7.72,0-14-6.28-14-14v-18.28c0-7.72,6.28-14,14-14h2.79c.63,0,1.26.04,1.88.13.62-.08,1.25-.13,1.89-.13h2.48c7.72,0,14,6.28,14,14v18.28c0,7.72-6.28,14-14,14h-2.27Z"/><path class="cls-5" d="m138.83,160.04c-.93,0-1.85-.09-2.76-.27-.91.18-1.83.27-2.76.27h-2.73c-4.24,0-8.21-1.89-10.88-5.19s-3.7-7.56-2.82-11.71l3.87-18.28c1.36-6.43,7.12-11.1,13.7-11.1h3.25c6.58,0,12.34,4.67,13.7,11.1l3.87,18.28c.88,4.15-.15,8.42-2.82,11.71s-6.63,5.18-10.88,5.18h-2.73Z"/><path class="cls-5" d="m156.86,160.04c-.52,0-1.04-.03-1.56-.09-.52.06-1.04.09-1.56.09h-.83c-.52,0-1.04-.03-1.56-.09-.52.06-1.04.09-1.56.09h-2.5c-7.72,0-14-6.28-14-14v-18.28c0-7.72,6.28-14,14-14h3.12c.98,0,1.96.1,2.91.31.95-.2,1.93-.31,2.91-.31h3.12c7.72,0,14,6.28,14,14v18.28c0,7.72-6.28,14-14,14h-2.5Z"/><path class="cls-5" d="m168.69,160.04c-.93,0-1.85-.09-2.76-.27-.91.18-1.83.27-2.76.27h-2.73c-4.24,0-8.21-1.89-10.88-5.19s-3.7-7.56-2.82-11.71l3.87-18.28c1.36-6.43,7.12-11.1,13.7-11.1h3.25c6.58,0,12.34,4.67,13.7,11.1l3.87,18.28c.88,4.15-.15,8.42-2.82,11.71s-6.63,5.18-10.88,5.18h-2.73Z"/><path class="cls-5" d="m179.05,160.04c-.66,0-1.33-.05-1.98-.14-.66.09-1.32.14-1.99.14h-2.58c-7.72,0-14-6.28-14-14v-18.28c0-7.72,6.28-14,14-14h6.32c9.37,0,16.71,7.35,16.71,16.74v5.35c0,1.69-.24,3.34-.71,4.92l.37,1.21c1.27,4.22.47,8.85-2.16,12.39-2.63,3.54-6.83,5.65-11.24,5.65h-2.73Z"/><path class="cls-5" d="m186.29,160.04c-9.37,0-16.71-7.35-16.71-16.74v-12.85c0-9.39,7.34-16.74,16.71-16.74h3.61c9.37,0,16.71,7.35,16.71,16.74v2.53c0,1.34-.19,2.65-.56,3.92.37,1.27.56,2.58.56,3.92v2.48c0,9.39-7.34,16.74-16.71,16.74h-3.61Z"/><path class="cls-5" d="m201.12,160.04c-.65,0-1.29-.04-1.93-.13-.64.09-1.29.13-1.93.13h-2.58c-7.72,0-14-6.28-14-14v-18.28c0-7.72,6.28-14,14-14h2.58c.65,0,1.29.04,1.93.13.64-.09,1.29-.13,1.93-.13h2.58c7.72,0,14,6.28,14,14v18.28c0,7.72-6.28,14-14,14h-2.58Z"/><path class="cls-5" d="m219.96,160.04c-.52,0-1.04-.03-1.56-.09-.52.06-1.04.09-1.56.09h-.83c-.52,0-1.04-.03-1.56-.09-.52.06-1.04.09-1.56.09h-2.5c-7.72,0-14-6.28-14-14v-18.28c0-7.72,6.28-14,14-14h3.12c.98,0,1.96.1,2.91.31.95-.2,1.93-.31,2.91-.31h3.12c7.72,0,14,6.28,14,14v18.28c0,7.72-6.28,14-14,14h-2.5Z"/><path class="cls-5" d="m231.8,160.04c-.93,0-1.85-.09-2.76-.27-.91.18-1.83.27-2.76.27h-2.73c-4.24,0-8.21-1.89-10.88-5.19s-3.7-7.56-2.82-11.71l3.87-18.28c1.36-6.43,7.12-11.1,13.7-11.1h3.25c6.58,0,12.34,4.67,13.7,11.1l3.87,18.28c.88,4.15-.15,8.42-2.82,11.71s-6.63,5.18-10.88,5.18h-2.73Z"/><path class="cls-5" d="m235.61,160.04c-7.72,0-14-6.28-14-14v-18.28c0-7.72,6.28-14,14-14h6.32c9.37,0,16.71,7.35,16.71,16.74v12.79c0,9.39-7.34,16.74-16.71,16.74h-6.32Z"/><path class="cls-5" d="m253.45,160.04c-.71,0-1.43-.06-2.14-.16-.71.11-1.43.16-2.14.16h-2.48c-7.72,0-14-6.28-14-14v-18.28c0-7.72,6.28-14,14-14h2.79c.63,0,1.26.04,1.88.13.62-.08,1.25-.13,1.89-.13h2.48c7.72,0,14,6.28,14,14v18.28c0,7.72-6.28,14-14,14h-2.27Z"/><path class="cls-5" d="m257.78,160.04c-7.72,0-14-6.28-14-14v-18.28c0-7.72,6.28-14,14-14h7.74c7.72,0,14,6.28,14,14v2.35c0,2.03-.44,4.04-1.29,5.88,0,.72,0,1.74,0,1.82.85,1.83,1.29,3.84,1.29,5.88v2.35c0,7.72-6.28,14-14,14h-7.74Z"/><path class="cls-5" d="m269.95,160.09c-9.37,0-16.71-7.35-16.71-16.74v-2.53c0-1.38.2-2.74.59-4.04-.4-1.48-.59-3.01-.59-4.57v-1.75c0-9.39,7.34-16.74,16.71-16.74h3.61c9.37,0,16.71,7.35,16.71,16.74v2.53c0,1.27-.17,2.51-.5,3.72.33,1.36.5,2.77.5,4.19v2.45c0,9.39-7.34,16.74-16.71,16.74h-3.61Z"/><path class="cls-5" d="m281.04,160.09c-9.37,0-16.71-7.35-16.71-16.74v-2.53c0-1.38.2-2.74.59-4.04-.4-1.48-.59-3.01-.59-4.57v-1.75c0-9.39,7.34-16.74,16.71-16.74h3.61c9.37,0,16.71,7.35,16.71,16.74v2.53c0,1.27-.17,2.51-.5,3.72.33,1.36.5,2.77.5,4.19v2.45c0,9.39-7.34,16.74-16.71,16.74h-3.61Z"/><path class="cls-5" d="m77.89,130.55c-7.72,0-14-6.28-14-14v-18.3c0-2.06.46-4.13,1.34-5.99l22.42-47.37h-8.67c-7.72,0-14-6.28-14-14V14.05C64.98,6.33,71.26.05,78.98.05h49.99c7.72,0,14,6.28,14,14v18.3c0,2.06-.47,4.14-1.35,6.01l-22.5,47.35h10.94c7.72,0,14,6.28,14,14v16.84c0,7.72-6.28,14-14,14h-52.17Z"/><path class="cls-5" d="m191.61,130.55c-2.53,0-4.96-.67-7.08-1.91-2.12,1.25-4.55,1.91-7.08,1.91h-5.99c-2.5,0-4.91-.65-7.02-1.88-2.11,1.22-4.51,1.88-7.01,1.88h-16.48c-7.72,0-14-6.28-14-14V14.05c0-7.72,6.28-14,14-14h20.02c6.42,0,11.95,4.3,13.55,10.48,1.6-6.19,7.14-10.48,13.55-10.48h20.02c7.72,0,14,6.28,14,14v102.5c0,7.72-6.28,14-14,14h-16.48Z"/><path class="cls-5" d="m270.88,130.55c-2.53,0-4.96-.67-7.08-1.91-2.12,1.25-4.55,1.91-7.08,1.91h-5.99c-2.5,0-4.91-.65-7.02-1.88-2.11,1.23-4.51,1.88-7.01,1.88h-16.48c-7.72,0-14-6.28-14-14V14.05c0-7.72,6.28-14,14-14h20.02c6.42,0,11.95,4.3,13.55,10.48,1.6-6.19,7.14-10.48,13.55-10.48h20.02c7.72,0,14,6.28,14,14v102.5c0,7.72-6.28,14-14,14h-16.48Z"/><path class="cls-5" d="m72.38,149.32C33.02,149.32,1,117.3,1,77.95S33.02,6.57,72.38,6.57v8c-34.95,0-63.38,28.43-63.38,63.38s28.43,63.38,63.38,63.38v8Z"/><path class="cls-4" d="m72.38,149.32C33.02,149.32,1,117.3,1,77.95S33.02,6.57,72.38,6.57v8c-34.95,0-63.38,28.43-63.38,63.38s28.43,63.38,63.38,63.38v8Z"/><path class="cls-5" d="m70.76,114.85c-1.93-.85-47.23-21.57-52.88-81.11l7.96-.76c2.18,22.94,10.91,42.44,25.95,57.96,11.28,11.64,22.1,16.55,22.21,16.6l-3.25,7.31Z"/><path class="cls-4" d="m70.76,114.85c-1.93-.85-47.23-21.57-52.88-81.11l7.96-.76c2.18,22.94,10.91,42.44,25.95,57.96,11.28,11.64,22.1,16.55,22.21,16.6l-3.25,7.31Z"/><path class="cls-5" d="m17.96,86.14c-7.92,0-13.82-5.66-16.27-9.6l6.78-4.25c.58.91,5.94,8.78,14.36,4.58,9.94-4.97,17.79-12.83,23.33-23.37.53-1.01,1.1-2.1,1.7-3.26,5.71-11.03,13.53-26.14,22.62-31.04l3.79,7.04c-6.92,3.73-14.68,18.71-19.31,27.67-.61,1.18-1.19,2.29-1.72,3.31-6.34,12.05-15.37,21.07-26.83,26.8-3,1.5-5.83,2.12-8.44,2.12Z"/><path class="cls-4" d="m17.96,86.14c-7.92,0-13.82-5.66-16.27-9.6l6.78-4.25c.58.91,5.94,8.78,14.36,4.58,9.94-4.97,17.79-12.83,23.33-23.37.53-1.01,1.1-2.1,1.7-3.26,5.71-11.03,13.53-26.14,22.62-31.04l3.79,7.04c-6.92,3.73-14.68,18.71-19.31,27.67-.61,1.18-1.19,2.29-1.72,3.31-6.34,12.05-15.37,21.07-26.83,26.8-3,1.5-5.83,2.12-8.44,2.12Z"/><path class="cls-5" d="m20.59,118.7l-6.8-4.21c.96-1.56,24.21-38.55,74.38-64.34l3.66,7.12c-48.09,24.72-71.01,61.07-71.24,61.43Z"/><path class="cls-4" d="m20.59,118.7l-6.8-4.21c.96-1.56,24.21-38.55,74.38-64.34l3.66,7.12c-48.09,24.72-71.01,61.07-71.24,61.43Z"/><path class="cls-5" d="m71.12,149.12c-.84-.28-20.67-7.11-21.81-32.34-.95-20.96,12.98-29.64,21.48-32.97,2.16-.99,9.85-3.05,34.54-.9l-.7,7.97c-22.58-1.97-29.26-.22-30.35.14l-.37.29-.09-.1c-7.92,3.06-17.21,9.92-16.52,25.2.89,19.58,15.72,24.9,16.35,25.12l-2.53,7.59Zm3.25-58.17h0Z"/><path class="cls-4" d="m71.12,149.12c-.84-.28-20.67-7.11-21.81-32.34-.95-20.96,12.98-29.64,21.48-32.97,2.16-.99,9.85-3.05,34.54-.9l-.7,7.97c-22.58-1.97-29.26-.22-30.35.14l-.37.29-.09-.1c-7.92,3.06-17.21,9.92-16.52,25.2.89,19.58,15.72,24.9,16.35,25.12l-2.53,7.59Zm3.25-58.17h0Z"/><path class="cls-5" d="m77.94,158.04c-6.62,0-12-5.38-12-12v-2.61c0-1.74.39-3.5,1.13-5.07l.89-1.91c-1.17-1.89-1.81-4.09-1.81-6.33v-2.35c0-6.62,5.38-12,12-12h8.82c6.62,0,12,5.38,12,12v2.61c0,1.74-.39,3.5-1.13,5.08l-.72,1.53c1.32,1.96,2.05,4.29,2.05,6.71v2.35c0,6.62-5.38,12-12,12h-9.23Z"/><path class="cls-5" d="m88.9,158.04c-6.62,0-12-5.38-12-12v-18.28c0-6.62,5.38-12,12-12h7.74c6.62,0,12,5.38,12,12v2.35c0,1.9-.44,3.75-1.29,5.42v2.02c0,.23,0,.45-.02.68.86,1.68,1.31,3.54,1.31,5.46v2.35c0,6.62-5.38,12-12,12h-7.74Z"/><path class="cls-5" d="m104.91,158.04c-.67,0-1.33-.06-1.98-.16-.66.11-1.32.16-1.99.16h-2.58c-6.62,0-12-5.38-12-12v-18.28c0-6.62,5.38-12,12-12h6.32c8.25,0,14.71,6.48,14.71,14.74v5.35c0,1.71-.27,3.35-.8,4.91l.55,1.81c1.09,3.62.4,7.59-1.85,10.62-2.25,3.03-5.85,4.85-9.63,4.85h-2.73Z"/><path class="cls-5" d="m112.15,158.09c-8.25,0-14.71-6.48-14.71-14.74v-12.9c0-8.27,6.46-14.74,14.71-14.74h3.61c8.25,0,14.71,6.48,14.71,14.74v12.9c0,8.27-6.46,14.74-14.71,14.74h-3.61Z"/><path class="cls-5" d="m127.28,158.04c-.72,0-1.43-.06-2.14-.19-.7.13-1.42.19-2.14.19h-2.48c-6.62,0-12-5.38-12-12v-18.28c0-6.62,5.38-12,12-12h2.79c.63,0,1.26.05,1.88.15.62-.1,1.25-.15,1.88-.15h2.48c6.62,0,12,5.38,12,12v18.28c0,6.62-5.38,12-12,12h-2.27Z"/><path class="cls-5" d="m138.88,158.04c-.94,0-1.86-.11-2.76-.32-.9.21-1.82.32-2.76.32h-2.73c-3.64,0-7.03-1.62-9.32-4.44s-3.17-6.48-2.42-10.04l3.87-18.28c1.17-5.51,6.1-9.52,11.74-9.52h3.25c5.64,0,10.57,4,11.74,9.52l3.87,18.28c.75,3.56-.13,7.22-2.42,10.04-2.29,2.82-5.69,4.44-9.32,4.44h-2.73Z"/><path class="cls-5" d="m156.91,158.04c-.52,0-1.05-.03-1.56-.1-.52.07-1.04.1-1.56.1h-.83c-.52,0-1.04-.03-1.56-.1-.52.07-1.04.1-1.56.1h-2.5c-6.62,0-12-5.38-12-12v-18.28c0-6.62,5.38-12,12-12h3.12c.99,0,1.96.12,2.91.36.95-.24,1.92-.36,2.91-.36h3.12c6.62,0,12,5.38,12,12v18.28c0,6.62-5.38,12-12,12h-2.5Z"/><path class="cls-5" d="m168.74,158.04c-.94,0-1.86-.11-2.76-.32-.9.21-1.82.32-2.76.32h-2.73c-3.64,0-7.03-1.62-9.32-4.44s-3.17-6.48-2.42-10.04l3.87-18.28c1.17-5.51,6.1-9.52,11.74-9.52h3.25c5.64,0,10.57,4,11.74,9.52l3.87,18.28c.75,3.56-.13,7.22-2.42,10.04-2.29,2.82-5.69,4.44-9.32,4.44h-2.73Z"/><path class="cls-5" d="m179.1,158.04c-.67,0-1.33-.06-1.98-.16-.65.11-1.32.16-1.99.16h-2.58c-6.62,0-12-5.38-12-12v-18.28c0-6.62,5.38-12,12-12h6.32c8.25,0,14.71,6.48,14.71,14.74v5.35c0,1.7-.27,3.35-.8,4.91l.55,1.81c1.09,3.62.4,7.59-1.85,10.62-2.25,3.03-5.85,4.85-9.63,4.85h-2.73Z"/><path class="cls-5" d="m186.35,158.04c-8.25,0-14.71-6.48-14.71-14.74v-12.85c0-8.27,6.46-14.74,14.71-14.74h3.61c8.25,0,14.71,6.48,14.71,14.74v2.53c0,1.34-.22,2.66-.66,3.92.43,1.25.66,2.58.66,3.92v2.48c0,8.27-6.46,14.74-14.71,14.74h-3.61Z"/><path class="cls-5" d="m201.17,158.04c-.65,0-1.3-.05-1.93-.16-.64.1-1.28.16-1.93.16h-2.58c-6.62,0-12-5.38-12-12v-18.28c0-6.62,5.38-12,12-12h2.58c.65,0,1.3.05,1.93.16.64-.1,1.29-.16,1.93-.16h2.58c6.62,0,12,5.38,12,12v18.28c0,6.62-5.38,12-12,12h-2.58Z"/><path class="cls-5" d="m220.02,158.04c-.52,0-1.05-.03-1.56-.1-.52.07-1.04.1-1.56.1h-.83c-.52,0-1.04-.03-1.56-.1-.52.07-1.04.1-1.56.1h-2.5c-6.62,0-12-5.38-12-12v-18.28c0-6.62,5.38-12,12-12h3.12c.99,0,1.96.12,2.91.36.95-.24,1.92-.36,2.91-.36h3.12c6.62,0,12,5.38,12,12v18.28c0,6.62-5.38,12-12,12h-2.5Z"/><path class="cls-5" d="m231.85,158.04c-.93,0-1.86-.11-2.76-.32-.9.21-1.82.32-2.76.32h-2.73c-3.64,0-7.03-1.62-9.32-4.44s-3.17-6.48-2.42-10.04l3.87-18.28c1.17-5.51,6.1-9.52,11.74-9.52h3.25c5.64,0,10.57,4,11.74,9.52l3.87,18.28c.75,3.56-.13,7.22-2.42,10.04-2.29,2.82-5.69,4.44-9.32,4.44h-2.73Z"/><path class="cls-5" d="m235.66,158.04c-6.62,0-12-5.38-12-12v-18.28c0-6.62,5.38-12,12-12h6.32c8.25,0,14.71,6.48,14.71,14.74v12.79c0,8.27-6.46,14.74-14.71,14.74h-6.32Z"/><path class="cls-5" d="m253.5,158.04c-.72,0-1.43-.06-2.14-.19-.7.13-1.42.19-2.14.19h-2.48c-6.62,0-12-5.38-12-12v-18.28c0-6.62,5.38-12,12-12h2.79c.63,0,1.26.05,1.88.15.62-.1,1.25-.15,1.89-.15h2.48c6.62,0,12,5.38,12,12v18.28c0,6.62-5.38,12-12,12h-2.27Z"/><path class="cls-5" d="m257.83,158.04c-6.62,0-12-5.38-12-12v-18.28c0-6.62,5.38-12,12-12h7.74c6.62,0,12,5.38,12,12v2.35c0,1.9-.44,3.75-1.29,5.42v2.02c0,.23,0,.45-.02.68.86,1.68,1.31,3.54,1.31,5.46v2.35c0,6.62-5.38,12-12,12h-7.74Z"/><path class="cls-5" d="m270,158.09c-8.25,0-14.71-6.48-14.71-14.74v-2.53c0-1.37.23-2.72.69-4-.46-1.48-.69-3.03-.69-4.61v-1.75c0-8.27,6.46-14.74,14.71-14.74h3.61c8.25,0,14.71,6.48,14.71,14.74v2.53c0,1.25-.2,2.49-.58,3.68.38,1.37.58,2.79.58,4.23v2.45c0,8.27-6.46,14.74-14.71,14.74h-3.61Z"/><path class="cls-5" d="m281.09,158.09c-8.25,0-14.71-6.48-14.71-14.74v-2.53c0-1.37.23-2.72.69-4-.46-1.48-.69-3.03-.69-4.61v-1.75c0-8.27,6.46-14.74,14.71-14.74h3.61c8.25,0,14.71,6.48,14.71,14.74v2.53c0,1.25-.2,2.49-.58,3.68.38,1.37.58,2.79.58,4.23v2.45c0,8.27-6.46,14.74-14.71,14.74h-3.61Z"/><path class="cls-5" d="m77.94,128.55c-6.62,0-12-5.38-12-12v-18.3c0-1.76.4-3.54,1.15-5.13l23.77-50.22h-11.83c-6.62,0-12-5.38-12-12V14.05c0-6.62,5.38-12,12-12h49.99c6.62,0,12,5.38,12,12v18.3c0,1.77-.4,3.55-1.16,5.15l-23.86,50.2h14.11c6.62,0,12,5.38,12,12v16.84c0,6.62-5.38,12-12,12h-52.17Z"/><path class="cls-5" d="m191.66,128.55c-2.6,0-5.06-.83-7.08-2.31-2.02,1.47-4.48,2.31-7.08,2.31h-5.99c-2.56,0-5.01-.82-7.01-2.26-2.01,1.45-4.45,2.26-7.01,2.26h-16.48c-6.62,0-12-5.38-12-12V14.05c0-6.62,5.38-12,12-12h20.02c5.59,0,10.39,3.8,11.68,9.24l1.86,7.88,1.89-7.9c1.3-5.42,6.1-9.21,11.67-9.21h20.02c6.62,0,12,5.38,12,12v102.5c0,6.62-5.38,12-12,12h-16.48Z"/><path class="cls-5" d="m270.93,128.55c-2.6,0-5.06-.83-7.08-2.31-2.02,1.47-4.48,2.31-7.08,2.31h-5.99c-2.56,0-5.01-.82-7.01-2.26-2.01,1.45-4.45,2.26-7.01,2.26h-16.48c-6.62,0-12-5.38-12-12V14.05c0-6.62,5.38-12,12-12h20.02c5.59,0,10.39,3.8,11.68,9.24l1.86,7.88,1.89-7.9c1.3-5.42,6.1-9.21,11.67-9.21h20.02c6.62,0,12,5.38,12,12v102.5c0,6.62-5.38,12-12,12h-16.48Z"/><polygon class="cls-5" points="73.95 150.03 73.95 142.53 77.88 134.1 74.15 134.1 74.15 123.75 90.97 123.75 90.97 131.25 87.04 139.68 91.18 139.68 91.18 150.03 73.95 150.03"/><polygon class="cls-5" points="84.91 150.03 84.91 123.75 100.64 123.75 100.64 134.1 99.35 134.1 99.35 139.68 100.64 139.68 100.64 150.03 84.91 150.03"/><path class="cls-5" d="m94.37,150.03v-26.28h10.32c3.82,0,6.71,2.9,6.71,6.74v5.35c0,1.59-.5,3.04-1.38,4.18l3.02,10h-18.67Z"/><path class="cls-5" d="m112.16,150.08c-3.82,0-6.71-2.9-6.71-6.74v-12.9c0-3.84,2.88-6.74,6.71-6.74h3.61c3.82,0,6.71,2.9,6.71,6.74v12.9c0,3.84-2.88,6.74-6.71,6.74h-3.61Z"/><rect class="cls-5" x="116.54" y="123.75" width="17.02" height="26.28"/><polygon class="cls-5" points="125.71 150.03 131.27 123.75 141 123.75 146.56 150.03 125.71 150.03"/><rect class="cls-5" x="143.35" y="123.75" width="20.07" height="26.28"/><polygon class="cls-5" points="155.56 150.03 161.12 123.75 170.86 123.75 176.42 150.03 155.56 150.03"/><path class="cls-5" d="m168.56,150.03v-26.28h10.32c3.82,0,6.71,2.9,6.71,6.74v5.35c0,1.59-.5,3.03-1.38,4.18l3.02,10h-18.67Z"/><path class="cls-5" d="m186.35,150.03c-3.76,0-6.71-2.96-6.71-6.74v-12.85c0-3.78,2.95-6.74,6.71-6.74h3.61c3.76,0,6.71,2.96,6.71,6.74v12.85c0,3.78-2.95,6.74-6.71,6.74h-3.61Z"/><rect class="cls-5" x="190.73" y="123.75" width="17.03" height="26.28"/><rect class="cls-5" x="206.46" y="123.75" width="20.07" height="26.28"/><polygon class="cls-5" points="218.67 150.03 224.23 123.75 233.97 123.75 239.53 150.03 218.67 150.03"/><path class="cls-5" d="m231.67,150.03v-26.28h10.32c3.82,0,6.71,2.9,6.71,6.74v12.79c0,3.84-2.88,6.74-6.71,6.74h-10.32Z"/><rect class="cls-5" x="242.76" y="123.75" width="17.02" height="26.28"/><polygon class="cls-5" points="253.84 150.03 253.84 123.75 269.58 123.75 269.58 134.1 268.29 134.1 268.29 139.68 269.58 139.68 269.58 150.03 253.84 150.03"/><path class="cls-5" d="m270.01,150.08c-3.82,0-6.71-2.9-6.71-6.74v-6.53h1.54c-1.02-1.35-1.54-2.9-1.54-4.62v-1.75c0-3.84,2.88-6.74,6.71-6.74h3.61c3.82,0,6.71,2.9,6.71,6.74v6.53h-1.07c.71,1.18,1.07,2.49,1.07,3.91v2.45c0,3.84-2.88,6.74-6.71,6.74h-3.61Z"/><path class="cls-5" d="m281.1,150.08c-3.82,0-6.71-2.9-6.71-6.74v-6.53h1.54c-1.02-1.35-1.54-2.9-1.54-4.62v-1.75c0-3.84,2.88-6.74,6.71-6.74h3.61c3.82,0,6.71,2.9,6.71,6.74v6.53h-1.07c.71,1.17,1.07,2.49,1.07,3.91v2.45c0,3.84-2.88,6.74-6.71,6.74h-3.61Z"/><polygon class="cls-5" points="73.95 120.53 73.95 97.33 103.5 34.88 75.04 34.88 75.04 10.04 133.03 10.04 133.03 33.24 103.35 95.69 134.12 95.69 134.12 120.53 73.95 120.53"/><polygon class="cls-5" points="187.67 120.53 187.67 91.68 180.65 120.53 168.36 120.53 161.49 91.99 161.49 120.53 137.01 120.53 137.01 10.04 164.19 10.04 174.53 53.71 184.97 10.04 212.15 10.04 212.15 120.53 187.67 120.53"/><polygon class="cls-5" points="266.94 120.53 266.94 91.68 259.91 120.53 247.63 120.53 240.75 91.99 240.75 120.53 216.27 120.53 216.27 10.04 243.45 10.04 253.79 53.71 264.24 10.04 291.41 10.04 291.41 120.53 266.94 120.53"/><polygon class="cls-5" points="73.9 150.03 73.9 142.53 77.84 134.1 74.11 134.1 74.11 123.75 90.93 123.75 90.93 131.25 86.99 139.68 91.13 139.68 91.13 150.03 73.9 150.03"/><polygon class="cls-5" points="84.86 150.03 84.86 123.75 100.59 123.75 100.59 134.1 99.3 134.1 99.3 139.68 100.59 139.68 100.59 150.03 84.86 150.03"/><path class="cls-5" d="m94.32,150.03v-26.28h10.32c3.82,0,6.71,2.9,6.71,6.74v5.35c0,1.59-.5,3.04-1.38,4.18l3.02,10h-18.67Z"/><path class="cls-5" d="m112.11,150.08c-3.82,0-6.71-2.9-6.71-6.74v-12.9c0-3.84,2.88-6.74,6.71-6.74h3.61c3.82,0,6.71,2.9,6.71,6.74v12.9c0,3.84-2.88,6.74-6.71,6.74h-3.61Z"/><rect class="cls-5" x="116.49" y="123.75" width="17.03" height="26.28"/><polygon class="cls-5" points="125.66 150.03 131.22 123.75 140.96 123.75 146.52 150.03 125.66 150.03"/><rect class="cls-5" x="143.3" y="123.75" width="20.07" height="26.28"/><polygon class="cls-5" points="155.51 150.03 161.07 123.75 170.81 123.75 176.37 150.03 155.51 150.03"/><path class="cls-5" d="m168.52,150.03v-26.28h10.32c3.82,0,6.71,2.9,6.71,6.74v5.35c0,1.59-.5,3.03-1.38,4.18l3.02,10h-18.67Z"/><path class="cls-5" d="m186.31,150.03c-3.76,0-6.71-2.96-6.71-6.74v-12.85c0-3.78,2.95-6.74,6.71-6.74h3.61c3.76,0,6.71,2.96,6.71,6.74v12.85c0,3.78-2.95,6.74-6.71,6.74h-3.61Z"/><rect class="cls-5" x="190.69" y="123.75" width="17.02" height="26.28"/><rect class="cls-5" x="206.41" y="123.75" width="20.07" height="26.28"/><polygon class="cls-5" points="218.62 150.03 224.18 123.75 233.92 123.75 239.48 150.03 218.62 150.03"/><path class="cls-5" d="m231.62,150.03v-26.28h10.32c3.82,0,6.71,2.9,6.71,6.74v12.79c0,3.84-2.88,6.74-6.71,6.74h-10.32Z"/><rect class="cls-5" x="242.71" y="123.75" width="17.03" height="26.28"/><polygon class="cls-5" points="253.79 150.03 253.79 123.75 269.53 123.75 269.53 134.1 268.24 134.1 268.24 139.68 269.53 139.68 269.53 150.03 253.79 150.03"/><path class="cls-5" d="m269.96,150.08c-3.82,0-6.71-2.9-6.71-6.74v-6.53h1.54c-1.02-1.35-1.54-2.9-1.54-4.62v-1.75c0-3.84,2.88-6.74,6.71-6.74h3.61c3.82,0,6.71,2.9,6.71,6.74v6.53h-1.07c.71,1.18,1.07,2.49,1.07,3.91v2.45c0,3.84-2.88,6.74-6.71,6.74h-3.61Z"/><path class="cls-5" d="m281.05,150.08c-3.82,0-6.71-2.9-6.71-6.74v-6.53h1.54c-1.02-1.35-1.54-2.9-1.54-4.62v-1.75c0-3.84,2.88-6.74,6.71-6.74h3.61c3.82,0,6.71,2.9,6.71,6.74v6.53h-1.07c.71,1.18,1.07,2.49,1.07,3.91v2.45c0,3.84-2.88,6.74-6.71,6.74h-3.61Z"/><polygon class="cls-5" points="73.9 120.53 73.9 97.33 103.46 34.88 74.99 34.88 74.99 10.04 132.98 10.04 132.98 33.24 103.3 95.69 134.07 95.69 134.07 120.53 73.9 120.53"/><polygon class="cls-5" points="187.63 120.53 187.63 91.68 180.6 120.53 168.32 120.53 161.44 91.99 161.44 120.53 136.96 120.53 136.96 10.04 164.14 10.04 174.48 53.71 184.93 10.04 212.1 10.04 212.1 120.53 187.63 120.53"/><polygon class="cls-5" points="266.89 120.53 266.89 91.68 259.87 120.53 247.58 120.53 240.7 91.99 240.7 120.53 216.22 120.53 216.22 10.04 243.41 10.04 253.75 53.71 264.19 10.04 291.37 10.04 291.37 120.53 266.89 120.53"/><ellipse class="cls-1" cx="81.21" cy="77.12" rx="76.21" ry="66.55"/><polyline class="cls-3" points="395.48 70.11 351.32 70.11 355.71 52.96 399.87 52.96"/><polyline class="cls-3" points="403.28 38.02 359.11 38.02 363.5 20.87 407.67 20.87"/><polyline class="cls-3" points="353.43 61.54 304.92 61.54 313.14 29.45 361.2 29.45"/><line class="cls-3" x1="309.03" y1="45.49" x2="291.4" y2="45.49"/><polyline class="cls-3" points="379.01 136.94 334.85 136.94 339.24 119.79 383.41 119.79"/><polyline class="cls-3" points="386.81 104.85 342.64 104.85 347.03 87.7 391.2 87.7"/><polyline class="cls-3" points="336.96 128.36 288.45 128.36 296.67 96.27 344.73 96.27"/><line class="cls-3" x1="292.56" y1="112.32" x2="274.93" y2="112.32"/><path class="cls-6" d="m77.76,156.07c-5.51,0-10-4.49-10-10v-2.61c0-1.45.32-2.91.94-4.23l1.37-2.94c-1.37-1.75-2.11-3.88-2.11-6.14v-2.35c0-5.51,4.49-10,10-10h8.82c5.51,0,10,4.49,10,10v2.61c0,1.45-.32,2.91-.94,4.23l-1.22,2.62c1.52,1.79,2.37,4.08,2.37,6.46v2.35c0,5.51-4.49,10-10,10h-9.23Z"/><path class="cls-6" d="m88.72,156.07c-5.51,0-10-4.49-10-10v-18.28c0-5.51,4.49-10,10-10h7.74c5.51,0,10,4.49,10,10v2.35c0,1.74-.44,3.42-1.29,4.92,0,.06,0,2.52,0,2.52,0,.37-.02.74-.06,1.11.89,1.52,1.35,3.24,1.35,5.02v2.35c0,5.51-4.49,10-10,10h-7.74Z"/><path class="cls-6" d="m104.73,156.07c-.67,0-1.33-.07-1.98-.2-.65.13-1.32.2-1.99.2h-2.58c-5.51,0-10-4.49-10-10v-18.28c0-5.51,4.49-10,10-10h6.32c7.13,0,12.71,5.6,12.71,12.74v5.35c0,1.7-.31,3.32-.91,4.84l.74,2.45c.91,3.02.33,6.32-1.55,8.85-1.88,2.53-4.88,4.04-8.03,4.04h-2.73Z"/><path class="cls-6" d="m111.98,156.13c-7.13,0-12.71-5.6-12.71-12.74v-12.9c0-7.14,5.58-12.74,12.71-12.74h3.61c7.13,0,12.71,5.6,12.71,12.74v12.9c0,7.14-5.58,12.74-12.71,12.74h-3.61Z"/><path class="cls-6" d="m127.11,156.07c-.72,0-1.44-.08-2.14-.23-.7.15-1.42.23-2.14.23h-2.48c-5.51,0-10-4.49-10-10v-18.28c0-5.51,4.49-10,10-10h2.79c.63,0,1.26.06,1.88.18.62-.12,1.25-.18,1.88-.18h2.48c5.51,0,10,4.49,10,10v18.28c0,5.51-4.49,10-10,10h-2.27Z"/><path class="cls-6" d="m138.71,156.07c-.94,0-1.86-.13-2.76-.39-.89.26-1.82.39-2.76.39h-2.73c-3.03,0-5.86-1.35-7.77-3.7-1.91-2.35-2.64-5.4-2.01-8.37l3.87-18.28c.97-4.59,5.09-7.93,9.78-7.93h3.25c4.7,0,8.81,3.33,9.78,7.93l3.87,18.28c.63,2.96-.11,6.01-2.01,8.37s-4.74,3.7-7.77,3.7h-2.73Z"/><path class="cls-6" d="m156.73,156.07c-.52,0-1.05-.04-1.56-.12-.51.08-1.04.12-1.56.12h-.83c-.52,0-1.04-.04-1.56-.12-.51.08-1.04.12-1.56.12h-2.5c-5.51,0-10-4.49-10-10v-18.28c0-5.51,4.49-10,10-10h3.12c1,0,1.97.15,2.91.43.94-.29,1.92-.43,2.91-.43h3.12c5.51,0,10,4.49,10,10v18.28c0,5.51-4.49,10-10,10h-2.5Z"/><path class="cls-6" d="m168.56,156.07c-.94,0-1.86-.13-2.76-.39-.89.26-1.82.39-2.76.39h-2.73c-3.03,0-5.86-1.35-7.77-3.7-1.91-2.35-2.64-5.4-2.01-8.37l3.87-18.28c.97-4.59,5.09-7.93,9.78-7.93h3.25c4.7,0,8.81,3.33,9.78,7.93l3.87,18.28c.63,2.96-.11,6.01-2.01,8.37s-4.74,3.7-7.77,3.7h-2.73Z"/><path class="cls-6" d="m178.93,156.07c-.67,0-1.33-.07-1.98-.2-.65.13-1.32.2-1.99.2h-2.58c-5.51,0-10-4.49-10-10v-18.28c0-5.51,4.49-10,10-10h6.32c7.13,0,12.71,5.6,12.71,12.74v5.35c0,1.7-.31,3.32-.91,4.85l.74,2.45c.91,3.01.33,6.32-1.55,8.85-1.88,2.53-4.88,4.04-8.03,4.04h-2.73Z"/><path class="cls-6" d="m186.17,156.07c-7.13,0-12.71-5.6-12.71-12.74v-12.84c0-7.14,5.58-12.74,12.71-12.74h3.61c7.13,0,12.71,5.6,12.71,12.74v2.53c0,1.35-.27,2.68-.8,3.92.52,1.23.8,2.57.8,3.92v2.48c0,7.14-5.58,12.74-12.71,12.74h-3.61Z"/><path class="cls-6" d="m200.99,156.07c-.65,0-1.3-.06-1.93-.19-.63.12-1.28.19-1.93.19h-2.58c-5.51,0-10-4.49-10-10v-18.28c0-5.51,4.49-10,10-10h2.58c.65,0,1.3.06,1.93.19.63-.12,1.28-.19,1.93-.19h2.58c5.51,0,10,4.49,10,10v18.28c0,5.51-4.49,10-10,10h-2.58Z"/><path class="cls-6" d="m219.84,156.07c-.52,0-1.05-.04-1.56-.12-.51.08-1.04.12-1.56.12h-.82c-.52,0-1.04-.04-1.56-.12-.51.08-1.04.12-1.56.12h-2.5c-5.51,0-10-4.49-10-10v-18.28c0-5.51,4.49-10,10-10h3.12c1,0,1.97.15,2.91.43.94-.29,1.92-.43,2.91-.43h3.12c5.51,0,10,4.49,10,10v18.28c0,5.51-4.49,10-10,10h-2.5Z"/><path class="cls-6" d="m231.67,156.07c-.94,0-1.86-.13-2.76-.39-.9.26-1.82.39-2.76.39h-2.73c-3.03,0-5.86-1.35-7.77-3.7-1.91-2.35-2.64-5.4-2.01-8.37l3.87-18.28c.97-4.59,5.09-7.93,9.78-7.93h3.25c4.7,0,8.81,3.33,9.78,7.93l3.87,18.28c.63,2.96-.11,6.01-2.01,8.37s-4.74,3.7-7.77,3.7h-2.73Z"/><path class="cls-6" d="m235.48,156.07c-5.51,0-10-4.49-10-10v-18.28c0-5.51,4.49-10,10-10h6.32c7.13,0,12.71,5.6,12.71,12.74v12.79c0,7.14-5.58,12.74-12.71,12.74h-6.32Z"/><path class="cls-6" d="m253.33,156.07c-.72,0-1.44-.08-2.14-.23-.7.15-1.42.23-2.14.23h-2.48c-5.51,0-10-4.49-10-10v-18.28c0-5.51,4.49-10,10-10h2.79c.63,0,1.26.06,1.88.18.62-.12,1.25-.18,1.88-.18h2.48c5.51,0,10,4.49,10,10v18.28c0,5.51-4.49,10-10,10h-2.27Z"/><path class="cls-6" d="m257.66,156.07c-5.51,0-10-4.49-10-10v-18.28c0-5.51,4.49-10,10-10h7.74c5.51,0,10,4.49,10,10v2.35c0,1.74-.44,3.42-1.29,4.92,0,.06,0,2.52,0,2.52,0,.37-.02.74-.06,1.11.89,1.52,1.35,3.24,1.35,5.02v2.35c0,5.51-4.49,10-10,10h-7.74Z"/><path class="cls-6" d="m269.83,156.13c-7.13,0-12.71-5.6-12.71-12.74v-2.53c0-1.36.28-2.71.81-3.95-.54-1.48-.81-3.05-.81-4.66v-1.75c0-7.14,5.58-12.74,12.71-12.74h3.61c7.13,0,12.71,5.6,12.71,12.74v2.53c0,1.26-.23,2.48-.68,3.63.45,1.37.68,2.81.68,4.28v2.45c0,7.14-5.58,12.74-12.71,12.74h-3.61Z"/><path class="cls-6" d="m280.91,156.13c-7.13,0-12.71-5.6-12.71-12.74v-2.53c0-1.36.28-2.71.81-3.95-.54-1.48-.81-3.05-.81-4.66v-1.75c0-7.14,5.58-12.74,12.71-12.74h3.61c7.13,0,12.71,5.6,12.71,12.74v2.53c0,1.26-.23,2.48-.68,3.63.45,1.37.68,2.81.68,4.28v2.45c0,7.14-5.58,12.74-12.71,12.74h-3.61Z"/><path class="cls-6" d="m77.76,126.58c-5.51,0-10-4.49-10-10v-18.3c0-1.47.33-2.95.96-4.28l25.12-53.08h-14.99c-5.51,0-10-4.49-10-10V14.08c0-5.51,4.49-10,10-10h49.99c5.51,0,10,4.49,10,10v18.3c0,1.48-.33,2.96-.97,4.29l-25.22,53.06h17.27c5.51,0,10,4.49,10,10v16.84c0,5.51-4.49,10-10,10h-52.17Z"/><path class="cls-6" d="m191.49,126.58c-2.7,0-5.23-1.08-7.08-2.94-1.85,1.85-4.38,2.94-7.08,2.94h-5.99c-2.66,0-5.17-1.06-7.01-2.87-1.84,1.81-4.35,2.87-7.01,2.87h-16.48c-5.51,0-10-4.49-10-10V14.08c0-5.51,4.49-10,10-10h20.02c4.66,0,8.66,3.17,9.73,7.7l3.8,16.06,3.84-16.08c1.08-4.52,5.08-7.67,9.73-7.67h20.02c5.51,0,10,4.49,10,10v102.5c0,5.51-4.49,10-10,10h-16.48Z"/><path class="cls-6" d="m270.75,126.58c-2.71,0-5.23-1.08-7.08-2.94-1.85,1.85-4.38,2.94-7.08,2.94h-5.99c-2.66,0-5.17-1.06-7.01-2.87-1.84,1.81-4.35,2.87-7.01,2.87h-16.48c-5.51,0-10-4.49-10-10V14.08c0-5.51,4.49-10,10-10h20.02c4.66,0,8.66,3.17,9.73,7.7l3.8,16.06,3.84-16.08c1.08-4.52,5.08-7.67,9.73-7.67h20.02c5.51,0,10,4.49,10,10v102.5c0,5.51-4.49,10-10,10h-16.48Z"/><path class="cls-3" d="m72.25,145.36c-37.21,0-67.38-30.17-67.38-67.38S35.04,10.6,72.25,10.6"/><path class="cls-3" d="m72.25,111.23S27.23,91.29,21.74,33.4"/><path class="cls-3" d="m4.97,74.46s7.5,12.03,19.53,6.02c12.03-6.01,19.93-15.29,25.08-25.08,5.15-9.79,13.74-27.83,22.68-32.64"/><path class="cls-3" d="m17.06,116.63s23.05-37.31,72.81-62.88"/><path class="cls-3" d="m72.25,145.36s-18.04-5.96-19.07-28.72c-.73-16.07,8.42-24.99,19.07-29.11,0,0,5.17-2.98,32.6-.59"/><path class="cls-5" d="m77.81,154.07c-4.42,0-8-3.58-8-8v-2.61c0-1.17.26-2.32.75-3.38l1.93-4.14c-1.53-1.46-2.48-3.51-2.48-5.79v-2.35c0-4.42,3.58-8,8-8h8.82c4.42,0,8,3.58,8,8v2.61c0,1.17-.26,2.32-.75,3.38l-1.81,3.88c1.69,1.47,2.77,3.63,2.77,6.05v2.35c0,4.42-3.58,8-8,8h-9.23Z"/><path class="cls-5" d="m88.77,154.07c-4.42,0-8-3.58-8-8v-18.28c0-4.42,3.58-8,8-8h7.74c4.42,0,8,3.58,8,8v2.35c0,1.63-.49,3.14-1.32,4.4.02.23.03.46.03.69v2.35c0,.53-.05,1.05-.15,1.55.91,1.3,1.44,2.88,1.44,4.58v2.35c0,4.42-3.58,8-8,8h-7.74Z"/><path class="cls-5" d="m104.78,154.07c-.68,0-1.35-.09-1.98-.25-.64.16-1.3.25-1.99.25h-2.58c-4.42,0-8-3.58-8-8v-18.28c0-4.42,3.58-8,8-8h6.32c6,0,10.71,4.72,10.71,10.74v5.35c0,1.7-.37,3.3-1.03,4.72l.95,3.15c.73,2.42.27,5.05-1.24,7.08s-3.89,3.23-6.42,3.23h-2.73Z"/><path class="cls-5" d="m112.03,154.13c-6,0-10.71-4.72-10.71-10.74v-12.9c0-6.02,4.7-10.74,10.71-10.74h3.61c6,0,10.71,4.72,10.71,10.74v12.9c0,6.02-4.7,10.74-10.71,10.74h-3.61Z"/><path class="cls-5" d="m127.16,154.07c-.73,0-1.45-.1-2.14-.29-.68.19-1.4.29-2.14.29h-2.48c-4.42,0-8-3.58-8-8v-18.28c0-4.42,3.58-8,8-8h2.79c.64,0,1.27.08,1.88.22.6-.15,1.24-.22,1.88-.22h2.48c4.42,0,8,3.58,8,8v18.28c0,4.42-3.58,8-8,8h-2.27Z"/><path class="cls-5" d="m138.76,154.07c-.96,0-1.89-.17-2.76-.49-.86.32-1.79.49-2.76.49h-2.73c-2.41,0-4.7-1.09-6.21-2.96s-2.11-4.33-1.61-6.69l3.87-18.28c.78-3.7,4.05-6.34,7.83-6.34h3.25c3.78,0,7.04,2.65,7.83,6.34l3.87,18.28c.5,2.36-.09,4.82-1.61,6.69-1.52,1.87-3.8,2.96-6.21,2.96h-2.73Z"/><path class="cls-5" d="m156.78,154.07c-.53,0-1.06-.05-1.56-.15-.51.1-1.03.15-1.56.15h-.83c-.53,0-1.05-.05-1.56-.15-.51.1-1.03.15-1.56.15h-2.5c-4.42,0-8-3.58-8-8v-18.28c0-4.42,3.58-8,8-8h3.12c1.02,0,2,.19,2.91.55.91-.36,1.89-.55,2.91-.55h3.12c4.42,0,8,3.58,8,8v18.28c0,4.42-3.58,8-8,8h-2.5Z"/><path class="cls-5" d="m168.61,154.07c-.96,0-1.89-.17-2.76-.49-.86.32-1.79.49-2.76.49h-2.73c-2.41,0-4.7-1.09-6.21-2.96s-2.11-4.33-1.61-6.69l3.87-18.28c.78-3.7,4.05-6.34,7.83-6.34h3.25c3.78,0,7.04,2.65,7.83,6.34l3.87,18.28c.5,2.36-.09,4.82-1.61,6.69-1.52,1.87-3.8,2.96-6.21,2.96h-2.73Z"/><path class="cls-5" d="m178.98,154.07c-.68,0-1.35-.09-1.98-.25-.64.16-1.3.25-1.99.25h-2.58c-4.42,0-8-3.58-8-8v-18.28c0-4.42,3.58-8,8-8h6.32c6,0,10.71,4.72,10.71,10.74v5.35c0,1.7-.37,3.3-1.03,4.72l.95,3.15c.73,2.42.27,5.05-1.24,7.08s-3.89,3.23-6.42,3.23h-2.73Z"/><path class="cls-5" d="m186.22,154.07c-6,0-10.71-4.72-10.71-10.74v-12.84c0-6.02,4.7-10.74,10.71-10.74h3.61c6,0,10.71,4.72,10.71,10.74v2.53c0,1.42-.37,2.76-1.02,3.92.65,1.16,1.02,2.49,1.02,3.92v2.48c0,6.02-4.7,10.74-10.71,10.74h-3.61Z"/><path class="cls-5" d="m201.04,154.07c-.67,0-1.31-.08-1.93-.24-.62.15-1.27.24-1.93.24h-2.58c-4.42,0-8-3.58-8-8v-18.28c0-4.42,3.58-8,8-8h2.58c.67,0,1.31.08,1.93.24.62-.15,1.27-.24,1.93-.24h2.58c4.42,0,8,3.58,8,8v18.28c0,4.42-3.58,8-8,8h-2.58Z"/><path class="cls-5" d="m219.89,154.07c-.53,0-1.06-.05-1.56-.15-.51.1-1.03.15-1.56.15h-.83c-.53,0-1.05-.05-1.56-.15-.5.1-1.03.15-1.56.15h-2.5c-4.42,0-8-3.58-8-8v-18.28c0-4.42,3.58-8,8-8h3.12c1.02,0,2,.19,2.91.55.91-.36,1.89-.55,2.91-.55h3.12c4.42,0,8,3.58,8,8v18.28c0,4.42-3.58,8-8,8h-2.5Z"/><path class="cls-5" d="m231.72,154.07c-.96,0-1.89-.17-2.76-.49-.86.32-1.79.49-2.76.49h-2.73c-2.41,0-4.7-1.09-6.21-2.96s-2.11-4.33-1.61-6.69l3.87-18.28c.78-3.7,4.05-6.34,7.83-6.34h3.25c3.78,0,7.04,2.65,7.83,6.34l3.87,18.28c.5,2.36-.09,4.82-1.61,6.69-1.52,1.87-3.8,2.96-6.21,2.96h-2.73Z"/><path class="cls-5" d="m235.54,154.07c-4.42,0-8-3.58-8-8v-18.28c0-4.42,3.58-8,8-8h6.32c6,0,10.71,4.72,10.71,10.74v12.79c0,6.02-4.7,10.74-10.71,10.74h-6.32Z"/><path class="cls-5" d="m253.38,154.07c-.73,0-1.45-.1-2.14-.29-.68.19-1.4.29-2.14.29h-2.48c-4.42,0-8-3.58-8-8v-18.28c0-4.42,3.58-8,8-8h2.79c.64,0,1.27.08,1.88.22.6-.15,1.24-.22,1.88-.22h2.48c4.42,0,8,3.58,8,8v18.28c0,4.42-3.58,8-8,8h-2.27Z"/><path class="cls-5" d="m257.71,154.07c-4.42,0-8-3.58-8-8v-18.28c0-4.42,3.58-8,8-8h7.74c4.42,0,8,3.58,8,8v2.35c0,1.63-.49,3.14-1.32,4.4.02.23.03.46.03.69v2.35c0,.53-.05,1.05-.15,1.55.91,1.3,1.44,2.88,1.44,4.58v2.35c0,4.42-3.58,8-8,8h-7.74Z"/><path class="cls-5" d="m269.88,154.13c-6,0-10.71-4.72-10.71-10.74v-2.53c0-1.41.36-2.73,1-3.88-.78-1.75-1-3.43-1-4.74v-1.75c0-6.02,4.7-10.74,10.71-10.74h3.61c6,0,10.71,4.72,10.71,10.74v2.53c0,1.28-.3,2.49-.83,3.56.65,1.61.83,3.13.83,4.35v2.46c0,6.02-4.7,10.74-10.71,10.74h-3.61Z"/><path class="cls-5" d="m280.96,154.13c-6,0-10.71-4.72-10.71-10.74v-2.53c0-1.41.36-2.73,1-3.88-.78-1.75-1-3.43-1-4.74v-1.75c0-6.02,4.7-10.74,10.71-10.74h3.61c6,0,10.71,4.72,10.71,10.74v2.53c0,1.28-.3,2.49-.83,3.56.65,1.61.83,3.13.83,4.35v2.46c0,6.02-4.7,10.74-10.71,10.74h-3.61Z"/><path class="cls-5" d="m77.81,124.58c-4.42,0-8-3.58-8-8v-18.3c0-1.18.26-2.35.77-3.42l26.47-55.93h-18.15c-4.42,0-8-3.58-8-8V14.08c0-4.42,3.58-8,8-8h49.99c4.42,0,8,3.58,8,8v18.3c0,1.19-.26,2.36-.77,3.43l-26.57,55.92h20.44c4.42,0,8,3.58,8,8v16.84c0,4.42-3.58,8-8,8h-52.17Z"/><path class="cls-5" d="m191.54,124.58c-3.07,0-5.74-1.73-7.08-4.28-1.36,2.58-4.06,4.28-7.08,4.28h-5.99c-2.97,0-5.64-1.64-7.01-4.15-1.36,2.47-3.99,4.15-7.01,4.15h-16.48c-4.42,0-8-3.58-8-8V14.08c0-4.42,3.58-8,8-8h20.02c3.71,0,6.93,2.55,7.78,6.16l5.74,24.24,5.8-24.26c.86-3.6,4.08-6.14,7.78-6.14h20.02c4.42,0,8,3.58,8,8v102.5c0,4.42-3.58,8-8,8h-16.48Z"/><path class="cls-5" d="m270.8,124.58c-3.07,0-5.74-1.73-7.08-4.28-1.36,2.58-4.06,4.28-7.08,4.28h-5.99c-2.97,0-5.64-1.64-7.01-4.15-1.36,2.47-3.99,4.15-7.01,4.15h-16.48c-4.42,0-8-3.58-8-8V14.08c0-4.42,3.58-8,8-8h20.02c3.71,0,6.93,2.55,7.78,6.16l5.74,24.24,5.8-24.26c.86-3.6,4.08-6.14,7.78-6.14h20.02c4.42,0,8,3.58,8,8v102.5c0,4.42-3.58,8-8,8h-16.48Z"/><path class="cls-7" d="m77.82,146.06v-2.61l6.21-13.32h-6.01v-2.35h8.82v2.61l-6.22,13.32h6.42v2.35h-9.23Z"/><path class="cls-7" d="m88.78,146.06v-18.28h7.74v2.35h-5.16v5.09h3.87v2.35h-3.87v6.14h5.16v2.35h-7.74Z"/><path class="cls-7" d="m104.79,146.06l-1.93-7.44h-2.04v7.44h-2.58v-18.28h6.32c1.6,0,2.71,1.12,2.71,2.74v5.35c0,1.38-.77,2.38-2.01,2.66l2.27,7.52h-2.73Zm-3.97-9.79h3.74c.08,0,.13-.05.13-.13v-5.87c0-.08-.05-.13-.13-.13h-3.74v6.14Z"/><path class="cls-7" d="m115.65,146.11h-3.61c-1.6,0-2.71-1.12-2.71-2.74v-12.9c0-1.62,1.11-2.74,2.71-2.74h3.61c1.6,0,2.71,1.12,2.71,2.74v12.9c0,1.62-1.11,2.74-2.71,2.74Zm0-15.98h-3.61c-.08,0-.13.05-.13.13v13.32c0,.08.05.13.13.13h3.61c.08,0,.13-.05.13-.13v-13.32c0-.08-.05-.13-.13-.13Z"/><path class="cls-7" d="m127.17,146.06l-4.2-12.04-.08-.34v12.37h-2.48v-18.28h2.79l3.69,10.83.08.37v-11.2h2.48v18.28h-2.27Z"/><path class="cls-7" d="m138.2,143.19h-4.38l-.57,2.87h-2.73l3.87-18.28h3.25l3.87,18.28h-2.73l-.57-2.87Zm-.49-2.35l-1.62-8.12-.08-.65-.08.65-1.62,8.12h3.4Z"/><path class="cls-7" d="m156.79,146.06v-12.06l-.08.44-3.04,11.62h-.83l-3.04-11.62-.08-.44v12.06h-2.5v-18.28h3.12l2.91,11.28,2.91-11.28h3.12v18.28h-2.5Z"/><path class="cls-7" d="m168.06,143.19h-4.38l-.57,2.87h-2.73l3.87-18.28h3.25l3.87,18.28h-2.73l-.57-2.87Zm-.49-2.35l-1.62-8.12-.08-.65-.08.65-1.62,8.12h3.4Z"/><path class="cls-7" d="m178.99,146.06l-1.93-7.44h-2.04v7.44h-2.58v-18.28h6.32c1.6,0,2.71,1.12,2.71,2.74v5.35c0,1.38-.77,2.38-2.01,2.66l2.27,7.52h-2.73Zm-3.97-9.79h3.74c.08,0,.13-.05.13-.13v-5.87c0-.08-.05-.13-.13-.13h-3.74v6.14Z"/><path class="cls-7" d="m189.84,146.06h-3.61c-1.55,0-2.71-1.17-2.71-2.74v-12.84c0-1.57,1.16-2.74,2.71-2.74h3.61c1.55,0,2.71,1.17,2.71,2.74v2.53h-2.58v-2.74c0-.08-.05-.13-.13-.13h-3.61c-.08,0-.13.05-.13.13v13.32c0,.08.05.13.13.13h3.61c.08,0,.13-.05.13-.13v-2.74h2.58v2.48c0,1.57-1.16,2.74-2.71,2.74Z"/><path class="cls-7" d="m201.05,146.06v-8.49h-3.87v8.49h-2.58v-18.28h2.58v7.44h3.87v-7.44h2.58v18.28h-2.58Z"/><path class="cls-7" d="m219.9,146.06v-12.06l-.08.44-3.04,11.62h-.83l-3.04-11.62-.08-.44v12.06h-2.5v-18.28h3.12l2.91,11.28,2.91-11.28h3.12v18.28h-2.5Z"/><path class="cls-7" d="m231.16,143.19h-4.38l-.57,2.87h-2.73l3.87-18.28h3.25l3.87,18.28h-2.73l-.57-2.87Zm-.49-2.35l-1.62-8.12-.08-.65-.08.65-1.62,8.12h3.4Z"/><path class="cls-7" d="m241.86,146.06h-6.32v-18.28h6.32c1.6,0,2.71,1.12,2.71,2.74v12.79c0,1.62-1.11,2.74-2.71,2.74Zm.13-2.48v-13.32c0-.08-.05-.13-.13-.13h-3.74v13.58h3.74c.08,0,.13-.05.13-.13Z"/><path class="cls-7" d="m253.39,146.06l-4.2-12.04-.08-.34v12.37h-2.48v-18.28h2.79l3.69,10.83.08.37v-11.2h2.48v18.28h-2.27Z"/><path class="cls-7" d="m257.72,146.06v-18.28h7.74v2.35h-5.16v5.09h3.87v2.35h-3.87v6.14h5.16v2.35h-7.74Z"/><path class="cls-7" d="m273.5,140.11l-5.08-5.12c-.85-.84-1.24-1.7-1.24-2.77v-1.75c0-1.62,1.11-2.74,2.71-2.74h3.61c1.6,0,2.71,1.12,2.71,2.74v2.53h-2.58v-2.74c0-.08-.05-.13-.13-.13h-3.61c-.08,0-.13.05-.13.13v2.48c0,.13.05.21.13.29l5.08,5.12c.85.84,1.24,1.7,1.24,2.77v2.45c0,1.62-1.11,2.74-2.71,2.74h-3.61c-1.6,0-2.71-1.12-2.71-2.74v-2.53h2.58v2.74c0,.08.05.13.13.13h3.61c.08,0,.13-.05.13-.13v-3.21c0-.1-.05-.18-.13-.26Z"/><path class="cls-7" d="m284.58,140.11l-5.08-5.12c-.85-.84-1.24-1.7-1.24-2.77v-1.75c0-1.62,1.11-2.74,2.71-2.74h3.61c1.6,0,2.71,1.12,2.71,2.74v2.53h-2.58v-2.74c0-.08-.05-.13-.13-.13h-3.61c-.08,0-.13.05-.13.13v2.48c0,.13.05.21.13.29l5.08,5.12c.85.84,1.24,1.7,1.24,2.77v2.45c0,1.62-1.11,2.74-2.71,2.74h-3.61c-1.6,0-2.71-1.12-2.71-2.74v-2.53h2.58v2.74c0,.08.05.13.13.13h3.61c.08,0,.13-.05.13-.13v-3.21c0-.1-.05-.18-.13-.26Z"/><path class="cls-8" d="m77.82,116.57v-18.3l31.87-67.35h-30.78V14.07h49.99v18.3l-32.01,67.35h33.1v16.84h-52.17Z"/><path class="cls-8" d="m191.55,116.57v-59.15l-.41,2.64-13.76,56.52h-5.99l-13.62-56.52-.41-2.64v59.15h-16.48V14.07h20.02l13.48,56.96,13.62-56.96h20.02v102.5h-16.48Z"/><path class="cls-8" d="m270.81,116.57v-59.15l-.41,2.64-13.76,56.52h-5.99l-13.62-56.52-.41-2.64v59.15h-16.48V14.07h20.02l13.48,56.96,13.62-56.96h20.02v102.5h-16.48Z"/><path class="cls-7" d="m77.78,146.06v-2.61l6.21-13.32h-6.01v-2.35h8.82v2.61l-6.22,13.32h6.42v2.35h-9.23Z"/><path class="cls-7" d="m88.73,146.06v-18.28h7.74v2.35h-5.16v5.09h3.87v2.35h-3.87v6.14h5.16v2.35h-7.74Z"/><path class="cls-7" d="m104.75,146.06l-1.93-7.44h-2.04v7.44h-2.58v-18.28h6.32c1.6,0,2.71,1.12,2.71,2.74v5.35c0,1.38-.77,2.38-2.01,2.66l2.27,7.52h-2.73Zm-3.97-9.79h3.74c.08,0,.13-.05.13-.13v-5.87c0-.08-.05-.13-.13-.13h-3.74v6.14Z"/><path class="cls-7" d="m115.6,146.11h-3.61c-1.6,0-2.71-1.12-2.71-2.74v-12.9c0-1.62,1.11-2.74,2.71-2.74h3.61c1.6,0,2.71,1.12,2.71,2.74v12.9c0,1.62-1.11,2.74-2.71,2.74Zm0-15.98h-3.61c-.08,0-.13.05-.13.13v13.32c0,.08.05.13.13.13h3.61c.08,0,.13-.05.13-.13v-13.32c0-.08-.05-.13-.13-.13Z"/><path class="cls-7" d="m127.12,146.06l-4.2-12.04-.08-.34v12.37h-2.48v-18.28h2.79l3.69,10.83.08.37v-11.2h2.48v18.28h-2.27Z"/><path class="cls-7" d="m138.15,143.19h-4.38l-.57,2.87h-2.73l3.87-18.28h3.25l3.87,18.28h-2.73l-.57-2.87Zm-.49-2.35l-1.62-8.12-.08-.65-.08.65-1.62,8.12h3.4Z"/><path class="cls-7" d="m156.74,146.06v-12.06l-.08.44-3.04,11.62h-.83l-3.04-11.62-.08-.44v12.06h-2.5v-18.28h3.12l2.91,11.28,2.91-11.28h3.12v18.28h-2.5Z"/><path class="cls-7" d="m168.01,143.19h-4.38l-.57,2.87h-2.73l3.87-18.28h3.25l3.87,18.28h-2.73l-.57-2.87Zm-.49-2.35l-1.62-8.12-.08-.65-.08.65-1.62,8.12h3.4Z"/><path class="cls-7" d="m178.94,146.06l-1.93-7.44h-2.04v7.44h-2.58v-18.28h6.32c1.6,0,2.71,1.12,2.71,2.74v5.35c0,1.38-.77,2.38-2.01,2.66l2.27,7.52h-2.73Zm-3.97-9.79h3.74c.08,0,.13-.05.13-.13v-5.87c0-.08-.05-.13-.13-.13h-3.74v6.14Z"/><path class="cls-7" d="m189.79,146.06h-3.61c-1.55,0-2.71-1.17-2.71-2.74v-12.84c0-1.57,1.16-2.74,2.71-2.74h3.61c1.55,0,2.71,1.17,2.71,2.74v2.53h-2.58v-2.74c0-.08-.05-.13-.13-.13h-3.61c-.08,0-.13.05-.13.13v13.32c0,.08.05.13.13.13h3.61c.08,0,.13-.05.13-.13v-2.74h2.58v2.48c0,1.57-1.16,2.74-2.71,2.74Z"/><path class="cls-7" d="m201.01,146.06v-8.49h-3.87v8.49h-2.58v-18.28h2.58v7.44h3.87v-7.44h2.58v18.28h-2.58Z"/><path class="cls-7" d="m219.85,146.06v-12.06l-.08.44-3.04,11.62h-.83l-3.04-11.62-.08-.44v12.06h-2.5v-18.28h3.12l2.91,11.28,2.91-11.28h3.12v18.28h-2.5Z"/><path class="cls-7" d="m231.12,143.19h-4.38l-.57,2.87h-2.73l3.87-18.28h3.25l3.87,18.28h-2.73l-.57-2.87Zm-.49-2.35l-1.62-8.12-.08-.65-.08.65-1.62,8.12h3.4Z"/><path class="cls-7" d="m241.82,146.06h-6.32v-18.28h6.32c1.6,0,2.71,1.12,2.71,2.74v12.79c0,1.62-1.11,2.74-2.71,2.74Zm.13-2.48v-13.32c0-.08-.05-.13-.13-.13h-3.74v13.58h3.74c.08,0,.13-.05.13-.13Z"/><path class="cls-7" d="m253.34,146.06l-4.2-12.04-.08-.34v12.37h-2.48v-18.28h2.79l3.69,10.83.08.37v-11.2h2.48v18.28h-2.27Z"/><path class="cls-7" d="m257.67,146.06v-18.28h7.74v2.35h-5.16v5.09h3.87v2.35h-3.87v6.14h5.16v2.35h-7.74Z"/><path class="cls-7" d="m273.45,140.11l-5.08-5.12c-.85-.84-1.24-1.7-1.24-2.77v-1.75c0-1.62,1.11-2.74,2.71-2.74h3.61c1.6,0,2.71,1.12,2.71,2.74v2.53h-2.58v-2.74c0-.08-.05-.13-.13-.13h-3.61c-.08,0-.13.05-.13.13v2.48c0,.13.05.21.13.29l5.08,5.12c.85.84,1.24,1.7,1.24,2.77v2.45c0,1.62-1.11,2.74-2.71,2.74h-3.61c-1.6,0-2.71-1.12-2.71-2.74v-2.53h2.58v2.74c0,.08.05.13.13.13h3.61c.08,0,.13-.05.13-.13v-3.21c0-.1-.05-.18-.13-.26Z"/><path class="cls-7" d="m284.53,140.11l-5.08-5.12c-.85-.84-1.24-1.7-1.24-2.77v-1.75c0-1.62,1.11-2.74,2.71-2.74h3.61c1.6,0,2.71,1.12,2.71,2.74v2.53h-2.58v-2.74c0-.08-.05-.13-.13-.13h-3.61c-.08,0-.13.05-.13.13v2.48c0,.13.05.21.13.29l5.08,5.12c.85.84,1.24,1.7,1.24,2.77v2.45c0,1.62-1.11,2.74-2.71,2.74h-3.61c-1.6,0-2.71-1.12-2.71-2.74v-2.53h2.58v2.74c0,.08.05.13.13.13h3.61c.08,0,.13-.05.13-.13v-3.21c0-.1-.05-.18-.13-.26Z"/><path class="cls-8" d="m77.78,116.57v-18.3l31.87-67.35h-30.78V14.07h49.99v18.3l-32.01,67.35h33.1v16.84h-52.17Z"/><path class="cls-8" d="m191.5,116.57v-59.15l-.41,2.64-13.76,56.52h-5.99l-13.62-56.52-.41-2.64v59.15h-16.48V14.07h20.02l13.48,56.96,13.62-56.96h20.02v102.5h-16.48Z"/><path class="cls-8" d="m270.76,116.57v-59.15l-.41,2.64-13.76,56.52h-5.99l-13.62-56.52-.41-2.64v59.15h-16.48V14.07h20.02l13.48,56.96,13.62-56.96h20.02v102.5h-16.48Z"/></svg>